<svg xmlns="http://www.w3.org/2000/svg" viewBox="0 0 1280 1320" font-family="Inter, -apple-system, 'Noto Sans KR', sans-serif">
  <style>
    .canvas { fill: #0B0F1A; }
    .card { fill: #131826; stroke: #1F2A3D; stroke-width: 1; rx: 12; }
    .card-soft { fill: #0F1422; stroke: #1A2236; stroke-width: 1; rx: 12; }
    .good { fill: #10B981; }
    .warn { fill: #F59E0B; }
    .danger { fill: #EF4444; }
    .label { fill: #8A93A6; font-size: 12px; font-weight: 500; }
    .h2 { fill: #F1F5FF; font-size: 16px; font-weight: 600; }
    .tab { fill: #131826; stroke: #1F2A3D; }
    .tab-active { fill: #1A2A4A; stroke: #6EA8FF; stroke-width: 1.5; }
    .divider { stroke: #1F2A3D; stroke-width: 1; }
    .row-header { fill: #1A2236; }
  </style>
  <rect class="canvas" width="1280" height="1320"/>

  <!-- HEADER + TABS -->
  <rect x="0" y="0" width="1280" height="56" fill="#0B0F1A"/>
  <line x1="0" y1="56" x2="1280" y2="56" class="divider"/>
  <text x="32" y="35" class="h2">gohotelwinners</text>
  <text x="180" y="36" font-size="12" fill="#6B7689">/ Manager Dashboard</text>
  <text x="1080" y="32" font-size="12" fill="#E6ECF8">Sarah Chen</text>

  <g transform="translate(32, 76)">
    <rect class="tab" width="100" height="36" rx="8"/>
    <text x="50" y="23" text-anchor="middle" font-size="13" fill="#8A93A6">🏠 홈</text>
    <rect class="tab" x="110" width="100" height="36" rx="8"/>
    <text x="160" y="23" text-anchor="middle" font-size="13" fill="#8A93A6">🎬 영상</text>
    <rect class="tab-active" x="220" width="100" height="36" rx="8"/>
    <text x="270" y="23" text-anchor="middle" font-size="13" fill="#F1F5FF" font-weight="600">📝 결제</text>
    <rect class="tab" x="330" width="100" height="36" rx="8"/>
    <text x="380" y="23" text-anchor="middle" font-size="13" fill="#8A93A6">💬 문의</text>
    <rect class="tab" x="440" width="120" height="36" rx="8"/>
    <text x="500" y="23" text-anchor="middle" font-size="13" fill="#8A93A6">📊 고객 분석</text>
  </g>

  <!-- 계약 요약 헤더 -->
  <text x="32" y="156" class="h2">계약 요약</text>

  <!-- 1차 계약 -->
  <g transform="translate(32, 176)">
    <rect class="card" width="1216" height="160"/>
    <text x="20" y="32" font-size="13" fill="#F1F5FF" font-weight="600">1차 계약</text>
    <rect x="100" y="18" width="76" height="20" rx="10" fill="#0F2A1F" stroke="#10B981"/>
    <circle cx="118" cy="28" r="3" class="good"/>
    <text x="129" y="32" font-size="11" fill="#10B981" font-weight="600">운영 중</text>

    <!-- 옵션 C 3버튼 (#4) -->
    <g transform="translate(940, 16)">
      <rect width="76" height="28" rx="6" fill="#131826" stroke="#1F2A3D"/>
      <text x="38" y="18" text-anchor="middle" font-size="11" fill="#6EA8FF">📄 인보이스</text>

      <rect x="82" width="76" height="28" rx="6" fill="#131826" stroke="#1F2A3D"/>
      <text x="120" y="18" text-anchor="middle" font-size="11" fill="#6EA8FF">🧾 영수증</text>

      <rect x="164" width="76" height="28" rx="6" fill="#131826" stroke="#1F2A3D"/>
      <text x="202" y="18" text-anchor="middle" font-size="11" fill="#6EA8FF">📋 계약서</text>
    </g>

    <!-- 3분할 -->
    <g transform="translate(20, 60)">
      <rect width="386" height="80" rx="8" class="card-soft"/>
      <text x="16" y="22" font-size="10" fill="#8A93A6">결제일</text>
      <text x="16" y="48" font-size="18" fill="#F1F5FF" font-weight="700">2026-03-10</text>
      <text x="16" y="66" font-size="10" fill="#6B7689">$200 · PayPal</text>

      <rect x="402" width="386" height="80" rx="8" class="card-soft"/>
      <text x="418" y="22" font-size="10" fill="#8A93A6">노출 시작</text>
      <text x="418" y="48" font-size="18" fill="#F1F5FF" font-weight="700">2026-03-20</text>
      <text x="418" y="66" font-size="10" fill="#6B7689">실제 게시일</text>

      <rect x="804" width="372" height="80" rx="8" class="card-soft"/>
      <text x="820" y="22" font-size="10" fill="#8A93A6">보장 기한</text>
      <text x="820" y="48" font-size="18" fill="#F1F5FF" font-weight="700">2026-09-20</text>
      <text x="820" y="66" font-size="10" fill="#6EA8FF">D-125 남음</text>
    </g>
  </g>

  <!-- 2차 계약 -->
  <g transform="translate(32, 356)">
    <rect width="1216" height="160" fill="#131826" stroke="#3A4660" stroke-width="1" stroke-dasharray="6 4" rx="12"/>
    <text x="20" y="32" font-size="13" fill="#F1F5FF" font-weight="600">2차 계약</text>
    <text x="100" y="32" font-size="11" fill="#8A93A6">(선결제 완료 · 대기 중)</text>
    <rect x="240" y="18" width="84" height="20" rx="10" fill="#1A2A4A" stroke="#6EA8FF"/>
    <circle cx="258" cy="28" r="3" fill="#6EA8FF"/>
    <text x="270" y="32" font-size="11" fill="#6EA8FF" font-weight="600">노출 대기</text>

    <!-- 옵션 C 3버튼 -->
    <g transform="translate(940, 16)">
      <rect width="76" height="28" rx="6" fill="#131826" stroke="#1F2A3D"/>
      <text x="38" y="18" text-anchor="middle" font-size="11" fill="#6EA8FF">📄 인보이스</text>
      <rect x="82" width="76" height="28" rx="6" fill="#131826" stroke="#1F2A3D"/>
      <text x="120" y="18" text-anchor="middle" font-size="11" fill="#6EA8FF">🧾 영수증</text>
      <rect x="164" width="76" height="28" rx="6" fill="#131826" stroke="#1F2A3D"/>
      <text x="202" y="18" text-anchor="middle" font-size="11" fill="#6EA8FF">📋 계약서</text>
    </g>

    <!-- #5 정정: 중복 멘트 삭제 (8-19 선결제 완료... 같은 한 줄 짜리 멘트 없음) -->

    <!-- 3분할 -->
    <g transform="translate(20, 60)">
      <rect width="386" height="80" rx="8" class="card-soft"/>
      <text x="16" y="22" font-size="10" fill="#8A93A6">선결제일</text>
      <text x="16" y="48" font-size="18" fill="#F1F5FF" font-weight="700">2026-08-19</text>
      <text x="16" y="66" font-size="10" fill="#6B7689">$200 · PayPal</text>

      <rect x="402" width="386" height="80" rx="8" class="card-soft"/>
      <text x="418" y="22" font-size="10" fill="#8A93A6">노출 시작 예정</text>
      <text x="418" y="48" font-size="18" fill="#F1F5FF" font-weight="700">2026-09-21</text>
      <text x="418" y="66" font-size="10" fill="#6B7689">1차 종료 익일</text>

      <rect x="804" width="372" height="80" rx="8" class="card-soft"/>
      <text x="820" y="22" font-size="10" fill="#8A93A6">보장 기한</text>
      <text x="820" y="48" font-size="18" fill="#F1F5FF" font-weight="700">2027-03-20</text>
      <text x="820" y="66" font-size="10" fill="#6B7689">자동 시작</text>
    </g>
  </g>

  <!-- 환불 정책 안내 -->
  <g transform="translate(32, 536)">
    <rect width="1216" height="56" rx="8" fill="#0F2A1F" stroke="#10B981" stroke-opacity="0.4"/>
    <text x="20" y="24" font-size="11" fill="#10B981" font-weight="600">🛡 환불 보장</text>
    <text x="20" y="44" font-size="12" fill="#10B981">6개월 보장 기한 내 예약 0건 시 100% 환불됩니다. (계약서 4조 참조)</text>
  </g>

  <!-- 예약 내역 (#6 정정: 7컬럼) -->
  <g transform="translate(32, 624)">
    <text x="0" y="0" class="h2">예약 내역</text>
    <text x="0" y="20" font-size="12" fill="#6B7689">이번 계약 기간 예약 12건 · 노쇼 1건 포함 · 취소 2건 별도</text>

    <rect x="1040" y="-10" width="76" height="28" rx="6" fill="#131826" stroke="#1F2A3D"/>
    <text x="1078" y="8" text-anchor="middle" font-size="11" fill="#6EA8FF">⬇ 엑셀</text>
    <rect x="1124" y="-10" width="76" height="28" rx="6" fill="#131826" stroke="#1F2A3D"/>
    <text x="1162" y="8" text-anchor="middle" font-size="11" fill="#6EA8FF">⬇ PDF</text>
  </g>

  <!-- 예약 표 -->
  <g transform="translate(32, 660)">
    <rect class="card" width="1216" height="460"/>

    <!-- 헤더 행 -->
    <rect x="0" y="0" width="1216" height="36" rx="12 12 0 0" class="row-header"/>
    <text x="20" y="22" font-size="11" fill="#8A93A6" font-weight="500">예약번호</text>
    <text x="220" y="22" font-size="11" fill="#8A93A6" font-weight="500">예약일</text>
    <text x="370" y="22" font-size="11" fill="#8A93A6" font-weight="500">체크인</text>
    <text x="520" y="22" font-size="11" fill="#8A93A6" font-weight="500">체크아웃</text>
    <text x="680" y="22" font-size="11" fill="#8A93A6" font-weight="500">국가</text>
    <text x="900" y="22" font-size="11" fill="#8A93A6" font-weight="500" text-anchor="end">금액</text>
    <text x="1196" y="22" font-size="11" fill="#8A93A6" font-weight="500" text-anchor="end">상태</text>

    <!-- Row 1 -->
    <g transform="translate(0, 50)">
      <text x="20" y="14" font-size="11" fill="#E6ECF8" font-family="monospace">AGD-8429102</text>
      <text x="220" y="14" font-size="11" fill="#8A93A6">5/16</text>
      <text x="370" y="14" font-size="11" fill="#8A93A6">6/12</text>
      <text x="520" y="14" font-size="11" fill="#8A93A6">6/15</text>
      <text x="680" y="14" font-size="11" fill="#E6ECF8">🇯🇵 JP</text>
      <text x="900" y="14" font-size="11" fill="#F1F5FF" font-weight="700" text-anchor="end">$620</text>
      <rect x="1110" y="0" width="86" height="20" rx="10" fill="#1A2A4A" stroke="#6EA8FF"/>
      <text x="1153" y="14" text-anchor="middle" font-size="10" fill="#6EA8FF">예약 확정</text>
    </g>
    <line x1="0" y1="76" x2="1216" y2="76" class="divider"/>

    <g transform="translate(0, 90)">
      <text x="20" y="14" font-size="11" fill="#E6ECF8" font-family="monospace">AGD-8421887</text>
      <text x="220" y="14" font-size="11" fill="#8A93A6">5/12</text>
      <text x="370" y="14" font-size="11" fill="#8A93A6">5/22</text>
      <text x="520" y="14" font-size="11" fill="#8A93A6">5/24</text>
      <text x="680" y="14" font-size="11" fill="#E6ECF8">🇰🇷 KR</text>
      <text x="900" y="14" font-size="11" fill="#F1F5FF" font-weight="700" text-anchor="end">$380</text>
      <rect x="1090" y="0" width="106" height="20" rx="10" fill="#0F2A1F" stroke="#10B981"/>
      <text x="1143" y="14" text-anchor="middle" font-size="10" fill="#10B981">체크아웃 완료</text>
    </g>
    <line x1="0" y1="116" x2="1216" y2="116" class="divider"/>

    <g transform="translate(0, 130)">
      <text x="20" y="14" font-size="11" fill="#E6ECF8" font-family="monospace">AGD-8398201</text>
      <text x="220" y="14" font-size="11" fill="#8A93A6">5/04</text>
      <text x="370" y="14" font-size="11" fill="#8A93A6">5/15</text>
      <text x="520" y="14" font-size="11" fill="#8A93A6">5/18</text>
      <text x="680" y="14" font-size="11" fill="#E6ECF8">🇺🇸 US</text>
      <text x="900" y="14" font-size="11" fill="#F1F5FF" font-weight="700" text-anchor="end">$840</text>
      <rect x="1090" y="0" width="106" height="20" rx="10" fill="#0F2A1F" stroke="#10B981"/>
      <text x="1143" y="14" text-anchor="middle" font-size="10" fill="#10B981">체크아웃 완료</text>
    </g>
    <line x1="0" y1="156" x2="1216" y2="156" class="divider"/>

    <!-- 노쇼 -->
    <g transform="translate(0, 170)">
      <text x="20" y="14" font-size="11" fill="#E6ECF8" font-family="monospace">AGD-8378443</text>
      <text x="220" y="14" font-size="11" fill="#8A93A6">4/28</text>
      <text x="370" y="14" font-size="11" fill="#8A93A6">5/10</text>
      <text x="520" y="14" font-size="11" fill="#8A93A6">5/11</text>
      <text x="680" y="14" font-size="11" fill="#E6ECF8">🇹🇼 TW</text>
      <text x="900" y="14" font-size="11" fill="#F1F5FF" font-weight="700" text-anchor="end">$220</text>
      <rect x="1140" y="0" width="56" height="20" rx="10" fill="#2A2010" stroke="#F59E0B"/>
      <text x="1168" y="14" text-anchor="middle" font-size="10" fill="#F59E0B">노쇼</text>
    </g>
    <line x1="0" y1="196" x2="1216" y2="196" class="divider"/>

    <!-- 취소 -->
    <g transform="translate(0, 210)">
      <text x="20" y="14" font-size="11" fill="#E6ECF8" font-family="monospace">AGD-8352910</text>
      <text x="220" y="14" font-size="11" fill="#8A93A6">4/20</text>
      <text x="370" y="14" font-size="11" fill="#8A93A6">5/02</text>
      <text x="520" y="14" font-size="11" fill="#8A93A6">5/04</text>
      <text x="680" y="14" font-size="11" fill="#E6ECF8">🇻🇳 VN</text>
      <text x="900" y="14" font-size="11" fill="#6B7689" font-weight="700" text-anchor="end" text-decoration="line-through">$340</text>
      <rect x="1140" y="0" width="56" height="20" rx="10" fill="#2A1010" stroke="#EF4444"/>
      <text x="1168" y="14" text-anchor="middle" font-size="10" fill="#EF4444">취소</text>
    </g>
    <line x1="0" y1="236" x2="1216" y2="236" class="divider"/>

    <!-- 더보기 -->
    <g transform="translate(0, 250)">
      <text x="608" y="20" text-anchor="middle" font-size="11" fill="#6EA8FF">+ 7건 더 보기</text>
    </g>
  </g>

  <!-- 메타 -->
  <text x="32" y="1300" font-size="10" fill="#4A5366">BL-MGR-DASHBOARD-V1 / 📝 결제 탭 v2 / 2026-05-18 / 정정 #4·#5·#6 (옵션 C 3버튼 · 중복 멘트 삭제 · 7컬럼 국가)</text>
</svg>
