<svg xmlns="http://www.w3.org/2000/svg" viewBox="0 0 1280 1380" font-family="Inter, -apple-system, 'Noto Sans KR', sans-serif">
  <style>
    .canvas { fill: #0B0F1A; }
    .card { fill: #131826; stroke: #1F2A3D; stroke-width: 1; rx: 12; }
    .card-soft { fill: #0F1422; stroke: #1A2236; stroke-width: 1; rx: 12; }
    .accent { fill: #6EA8FF; }
    .good { fill: #10B981; }
    .warn { fill: #F59E0B; }
    .label { fill: #8A93A6; font-size: 12px; font-weight: 500; }
    .h2 { fill: #F1F5FF; font-size: 16px; font-weight: 600; }
    .tab { fill: #131826; stroke: #1F2A3D; }
    .tab-active { fill: #1A2A4A; stroke: #6EA8FF; stroke-width: 1.5; }
    .divider { stroke: #1F2A3D; stroke-width: 1; }
    .row-header { fill: #1A2236; }
  </style>
  <rect class="canvas" width="1280" height="1380"/>

  <!-- HEADER -->
  <rect x="0" y="0" width="1280" height="56" fill="#0B0F1A"/>
  <line x1="0" y1="56" x2="1280" y2="56" class="divider"/>
  <text x="32" y="35" class="h2">gohotelwinners</text>
  <text x="180" y="36" font-size="12" fill="#6B7689">/ Manager Dashboard</text>
  <text x="1080" y="32" font-size="12" fill="#E6ECF8">Sarah Chen</text>

  <!-- TABS -->
  <g transform="translate(32, 76)">
    <rect class="tab" width="100" height="36" rx="8"/>
    <text x="50" y="23" text-anchor="middle" font-size="13" fill="#8A93A6">🏠 홈</text>
    <rect class="tab-active" x="110" width="100" height="36" rx="8"/>
    <text x="160" y="23" text-anchor="middle" font-size="13" fill="#F1F5FF" font-weight="600">🎬 영상</text>
    <rect class="tab" x="220" width="100" height="36" rx="8"/>
    <text x="270" y="23" text-anchor="middle" font-size="13" fill="#8A93A6">📝 결제</text>
    <rect class="tab" x="330" width="100" height="36" rx="8"/>
    <text x="380" y="23" text-anchor="middle" font-size="13" fill="#8A93A6">💬 문의</text>
    <rect class="tab" x="440" width="120" height="36" rx="8"/>
    <text x="500" y="23" text-anchor="middle" font-size="13" fill="#8A93A6">📊 고객 분석</text>
  </g>

  <!-- 본편 섹션 헤더 -->
  <g transform="translate(32, 136)">
    <text x="0" y="0" class="h2">본편 영상</text>
    <text x="0" y="20" font-size="12" fill="#6B7689">계약에 포함된 메인 영상 · 1편</text>
    <rect x="1130" y="-10" width="80" height="22" rx="11" fill="#0F2A1F" stroke="#10B981"/>
    <circle cx="1148" cy="1" r="3" class="good"/>
    <text x="1160" y="5" font-size="11" fill="#10B981" font-weight="600">노출중</text>
  </g>

  <!-- 본편 카드 -->
  <g transform="translate(32, 172)">
    <rect class="card" width="1216" height="540"/>

    <!-- 썸네일 + 정보 -->
    <rect x="20" y="20" width="200" height="112" rx="8" fill="#1F2A3D"/>
    <text x="120" y="80" text-anchor="middle" font-size="11" fill="#6B7689">영상 썸네일</text>

    <text x="240" y="42" font-size="14" fill="#F1F5FF" font-weight="600">Hanok Stay Bukchon — 한옥 스테이 객실 투어 (8분)</text>
    <text x="240" y="62" font-size="11" fill="#8A93A6">제작 완료: 5월 1일 · 본편 1편 (계약 기간 6개월 보장)</text>

    <rect x="240" y="90" width="100" height="28" rx="6" fill="#131826" stroke="#1F2A3D"/>
    <text x="290" y="108" text-anchor="middle" font-size="11" fill="#6EA8FF">▶ 영상 재생</text>
    <rect x="348" y="90" width="120" height="28" rx="6" fill="#131826" stroke="#1F2A3D"/>
    <text x="408" y="108" text-anchor="middle" font-size="11" fill="#6EA8FF">↗ 유튜브 열기</text>

    <line x1="20" y1="160" x2="1196" y2="160" class="divider"/>

    <!-- 채널 표 -->
    <text x="20" y="186" font-size="12" fill="#E6ECF8" font-weight="600">8채널 노출 현황</text>

    <!-- 헤더 행 -->
    <rect x="20" y="200" width="1176" height="32" rx="6" class="row-header"/>
    <text x="34" y="220" font-size="11" fill="#8A93A6" font-weight="500">유튜브 채널</text>
    <text x="316" y="220" font-size="11" fill="#8A93A6" font-weight="500">언어</text>
    <text x="466" y="220" font-size="11" fill="#8A93A6" font-weight="500">타겟 국가</text>
    <text x="666" y="220" font-size="11" fill="#8A93A6" font-weight="500">게시일</text>
    <text x="816" y="220" font-size="11" fill="#8A93A6" font-weight="500">상태</text>
    <text x="1166" y="220" text-anchor="end" font-size="11" fill="#8A93A6" font-weight="500">영상</text>

    <!-- 한국 4채널 -->
    <g transform="translate(0, 240)">
      <text x="34" y="14" font-size="12" fill="#E6ECF8">📺 호텔이야 한국</text>
      <text x="316" y="14" font-size="11" fill="#8A93A6">한국어</text>
      <text x="466" y="14" font-size="11" fill="#8A93A6">🇰🇷 KR</text>
      <text x="666" y="14" font-size="11" fill="#8A93A6">5월 3일</text>
      <rect x="810" y="-2" width="58" height="20" rx="10" fill="#0F2A1F" stroke="#10B981"/>
      <text x="839" y="12" text-anchor="middle" font-size="10" fill="#10B981" font-weight="600">노출중</text>
      <text x="1166" y="14" text-anchor="end" font-size="11" fill="#6EA8FF">보기 →</text>
    </g>
    <line x1="20" y1="266" x2="1196" y2="266" class="divider"/>

    <g transform="translate(0, 280)">
      <text x="34" y="14" font-size="12" fill="#E6ECF8">📺 호텔이곳</text>
      <text x="316" y="14" font-size="11" fill="#8A93A6">한국어</text>
      <text x="466" y="14" font-size="11" fill="#8A93A6">🇰🇷 KR</text>
      <text x="666" y="14" font-size="11" fill="#8A93A6">5월 7일</text>
      <rect x="810" y="-2" width="58" height="20" rx="10" fill="#0F2A1F" stroke="#10B981"/>
      <text x="839" y="12" text-anchor="middle" font-size="10" fill="#10B981" font-weight="600">노출중</text>
      <text x="1166" y="14" text-anchor="end" font-size="11" fill="#6EA8FF">보기 →</text>
    </g>
    <line x1="20" y1="306" x2="1196" y2="306" class="divider"/>

    <g transform="translate(0, 320)">
      <text x="34" y="14" font-size="12" fill="#E6ECF8">📺 호텔닷컴</text>
      <text x="316" y="14" font-size="11" fill="#8A93A6">한국어</text>
      <text x="466" y="14" font-size="11" fill="#8A93A6">🇰🇷 KR</text>
      <text x="666" y="14" font-size="11" fill="#8A93A6">5월 10일</text>
      <rect x="810" y="-2" width="58" height="20" rx="10" fill="#0F2A1F" stroke="#10B981"/>
      <text x="839" y="12" text-anchor="middle" font-size="10" fill="#10B981" font-weight="600">노출중</text>
      <text x="1166" y="14" text-anchor="end" font-size="11" fill="#6EA8FF">보기 →</text>
    </g>
    <line x1="20" y1="346" x2="1196" y2="346" class="divider"/>

    <g transform="translate(0, 360)">
      <text x="34" y="14" font-size="12" fill="#E6ECF8">📺 여행능력자들</text>
      <text x="316" y="14" font-size="11" fill="#8A93A6">한국어</text>
      <text x="466" y="14" font-size="11" fill="#8A93A6">🇰🇷 KR</text>
      <text x="666" y="14" font-size="11" fill="#8A93A6">5월 14일</text>
      <rect x="810" y="-2" width="58" height="20" rx="10" fill="#0F2A1F" stroke="#10B981"/>
      <text x="839" y="12" text-anchor="middle" font-size="10" fill="#10B981" font-weight="600">노출중</text>
      <text x="1166" y="14" text-anchor="end" font-size="11" fill="#6EA8FF">보기 →</text>
    </g>
    <line x1="20" y1="386" x2="1196" y2="386" class="divider" stroke="#2A3A5A"/>

    <!-- 해외 4채널 -->
    <g transform="translate(0, 400)">
      <text x="34" y="14" font-size="12" fill="#E6ECF8">🌐 Koreahotelguide</text>
      <text x="316" y="14" font-size="11" fill="#8A93A6">English</text>
      <text x="466" y="14" font-size="11" fill="#8A93A6">🇺🇸🇬🇧🇦🇺🇮🇳</text>
      <text x="666" y="14" font-size="11" fill="#8A93A6">5월 18일</text>
      <rect x="810" y="-2" width="58" height="20" rx="10" fill="#0F2A1F" stroke="#10B981"/>
      <text x="839" y="12" text-anchor="middle" font-size="10" fill="#10B981" font-weight="600">노출중</text>
      <text x="1166" y="14" text-anchor="end" font-size="11" fill="#6EA8FF">보기 →</text>
    </g>
    <line x1="20" y1="426" x2="1196" y2="426" class="divider"/>

    <g transform="translate(0, 440)">
      <text x="34" y="14" font-size="12" fill="#E6ECF8">🌐 호텔이야 일본</text>
      <text x="316" y="14" font-size="11" fill="#8A93A6">日本語</text>
      <text x="466" y="14" font-size="11" fill="#8A93A6">🇯🇵 JP</text>
      <text x="666" y="14" font-size="11" fill="#8A93A6">5월 21일</text>
      <rect x="810" y="-2" width="58" height="20" rx="10" fill="#0F2A1F" stroke="#10B981"/>
      <text x="839" y="12" text-anchor="middle" font-size="10" fill="#10B981" font-weight="600">노출중</text>
      <text x="1166" y="14" text-anchor="end" font-size="11" fill="#6EA8FF">보기 →</text>
    </g>
    <line x1="20" y1="466" x2="1196" y2="466" class="divider"/>

    <g transform="translate(0, 480)">
      <text x="34" y="14" font-size="12" fill="#E6ECF8">🌐 世界就是家</text>
      <text x="316" y="14" font-size="11" fill="#8A93A6">中文</text>
      <text x="466" y="14" font-size="11" fill="#8A93A6" font-weight="600">🇹🇼 TW (대만)</text>
      <text x="666" y="14" font-size="11" fill="#8A93A6">5월 25일 (예정)</text>
      <rect x="810" y="-2" width="76" height="20" rx="10" fill="#2A2010" stroke="#F59E0B"/>
      <text x="848" y="12" text-anchor="middle" font-size="10" fill="#F59E0B" font-weight="600">게시 예정</text>
      <text x="1166" y="14" text-anchor="end" font-size="11" fill="#4A5366">—</text>
    </g>
    <line x1="20" y1="506" x2="1196" y2="506" class="divider"/>

    <g transform="translate(0, 520)">
      <text x="34" y="14" font-size="12" fill="#E6ECF8">🌐 Korea Hotel 베트남어</text>
      <text x="316" y="14" font-size="11" fill="#8A93A6">Tiếng Việt</text>
      <text x="466" y="14" font-size="11" fill="#8A93A6">🇻🇳 VN</text>
      <text x="666" y="14" font-size="11" fill="#8A93A6">5월 29일 (예정)</text>
      <rect x="810" y="-2" width="76" height="20" rx="10" fill="#2A2010" stroke="#F59E0B"/>
      <text x="848" y="12" text-anchor="middle" font-size="10" fill="#F59E0B" font-weight="600">게시 예정</text>
      <text x="1166" y="14" text-anchor="end" font-size="11" fill="#4A5366">—</text>
    </g>
  </g>

  <!-- 추가 노출 섹션 (#3 정정) -->
  <g transform="translate(32, 740)">
    <text x="0" y="0" class="h2">추가 노출 영상</text>
    <text x="150" y="0" font-size="11" fill="#6B7689">(서비스 제공 · 본편 보장 기한과 동일)</text>
    <text x="0" y="20" font-size="12" fill="#6B7689">TravelWinners가 추가로 게시하는 부속 영상 (옵션 · 0편 ~ N편)</text>
    <text x="1110" y="20" font-size="11" fill="#8A93A6" text-anchor="end">현재 1편</text>
  </g>

  <!-- 추가 노출 카드 -->
  <g transform="translate(32, 780)">
    <rect class="card" width="1216" height="160"/>
    <rect x="20" y="20" width="200" height="112" rx="8" fill="#1F2A3D"/>
    <text x="120" y="80" text-anchor="middle" font-size="11" fill="#6B7689">썸네일</text>

    <text x="240" y="42" font-size="13" fill="#F1F5FF" font-weight="600">한옥 스테이 — 조식 &amp; 라운지 짧은 컷 (3분)</text>
    <text x="240" y="62" font-size="11" fill="#8A93A6">게시일: 5월 14일 · 채널: 여행능력자들 (한국어)</text>
    <text x="240" y="82" font-size="10" fill="#6B7689">※ 보장 기한 = 본편과 동일 (2026-09-20)</text>

    <rect x="240" y="100" width="100" height="28" rx="6" fill="#131826" stroke="#1F2A3D"/>
    <text x="290" y="118" text-anchor="middle" font-size="11" fill="#6EA8FF">▶ 영상 재생</text>

    <text x="1180" y="42" text-anchor="end" font-size="10" fill="#8A93A6">조회수</text>
    <text x="1180" y="64" text-anchor="end" font-size="18" fill="#F1F5FF" font-weight="700">8,420</text>
  </g>

  <!-- 안내 -->
  <text x="32" y="960" font-size="11" fill="#6B7689">💡 추가 노출은 TravelWinners 운영 판단으로 무상 제공되는 서비스 영상입니다. 본편 보장 기한 종료 시 함께 종료됩니다.</text>

  <!-- 0편일 때 안내 (정책 박스) -->
  <g transform="translate(32, 1000)">
    <rect class="card-soft" width="1216" height="100" stroke="#1F2A3D" stroke-dasharray="6 4"/>
    <text x="20" y="28" font-size="12" fill="#6EA8FF" font-weight="600">📐 정책: 추가 노출 0편일 때</text>
    <text x="20" y="50" font-size="11" fill="#8A93A6">• 추가 노출 섹션 자체를 통째로 숨김 (영상 탭에 본편만 표시됨)</text>
    <text x="20" y="68" font-size="11" fill="#8A93A6">• "추가 노출 없음" 같은 안내 멘트도 표시하지 않음 (UI 깔끔성)</text>
    <text x="20" y="86" font-size="11" fill="#8A93A6">• 추가 노출 영상이 1편 이상 게시되는 시점부터 섹션이 자동 활성화</text>
  </g>

  <!-- 메타 -->
  <text x="32" y="1360" font-size="10" fill="#4A5366">BL-MGR-DASHBOARD-V1 / 🎬 영상 탭 v2 / 2026-05-18 / 정정 #1·#2·#3 반영 (대만 단독·Hero 제거·추가 노출 옵션)</text>
</svg>
