<svg xmlns="http://www.w3.org/2000/svg" viewBox="0 0 760 660" width="760" height="660" font-family="-apple-system,BlinkMacSystemFont,'Malgun Gothic',sans-serif">
<rect width="760" height="660" fill="#0f1115"/>
<defs><marker id="ar" viewBox="0 0 10 10" refX="8" refY="5" markerWidth="6" markerHeight="6" orient="auto-start-reverse"><path d="M2 1L8 5L2 9" fill="none" stroke="#9aa1ad" stroke-width="1.5"/></marker></defs>
<text x="20" y="30" fill="#e8eaed" font-size="16" font-weight="600">TW 시스템도 · 2026-08-11</text>
<text x="20" y="50" fill="#9aa1ad" font-size="12">명부는 한 권 같이 · 장부는 각자 · 문도 각자</text>

<rect x="150" y="70" width="460" height="62" rx="10" fill="#2a2140" stroke="#6b5b95"/>
<text x="380" y="96" fill="#e8eaed" font-size="14" font-weight="600" text-anchor="middle">관리실 · 개인업무시스템 (최상위)</text>
<text x="380" y="116" fill="#9aa1ad" font-size="11" text-anchor="middle">보기만 함 · 아무것도 안 고침 · 점검판 ops.html</text>

<line x1="235" y1="132" x2="152" y2="188" stroke="#9aa1ad" marker-end="url(#ar)"/>
<line x1="380" y1="132" x2="380" y2="188" stroke="#9aa1ad" marker-end="url(#ar)"/>
<line x1="525" y1="132" x2="608" y2="188" stroke="#9aa1ad" marker-end="url(#ar)"/>
<text x="392" y="164" fill="#9aa1ad" font-size="11">묻기만</text>

<rect x="40" y="192" width="220" height="76" rx="10" fill="#13322f" stroke="#2e7d73"/>
<text x="150" y="218" fill="#e8eaed" font-size="13" font-weight="600" text-anchor="middle">① 스튜디오 (B2B)</text>
<text x="150" y="238" fill="#9aa1ad" font-size="11" text-anchor="middle">gohotelwinners.com</text>
<text x="150" y="256" fill="#9aa1ad" font-size="11" text-anchor="middle">호텔 3,253 · 예약 7,316</text>

<rect x="270" y="192" width="220" height="76" rx="10" fill="#3a1f1c" stroke="#a05548"/>
<text x="380" y="218" fill="#e8eaed" font-size="13" font-weight="600" text-anchor="middle">② 블로그</text>
<text x="380" y="238" fill="#9aa1ad" font-size="11" text-anchor="middle">staycurate.com</text>
<text x="380" y="256" fill="#9aa1ad" font-size="11" text-anchor="middle">blog_ 표 12개</text>

<rect x="500" y="192" width="220" height="76" rx="10" fill="#1a1d24" stroke="#3d434f" stroke-dasharray="5 4"/>
<text x="610" y="218" fill="#e8eaed" font-size="13" font-weight="600" text-anchor="middle">③ 패키지여행 (예정)</text>
<text x="610" y="238" fill="#9aa1ad" font-size="11" text-anchor="middle">자기 도메인 · 자기 창고</text>
<text x="610" y="256" fill="#9aa1ad" font-size="11" text-anchor="middle">기존에 손 안 댐</text>

<line x1="150" y1="268" x2="150" y2="308" stroke="#9aa1ad" marker-end="url(#ar)"/>
<line x1="380" y1="268" x2="380" y2="308" stroke="#9aa1ad" marker-end="url(#ar)"/>

<rect x="40" y="312" width="220" height="58" rx="8" fill="#13322f" stroke="#2e7d73" stroke-width="2"/>
<text x="150" y="336" fill="#e8eaed" font-size="13" font-weight="600" text-anchor="middle">문① 스튜디오 창구</text>
<text x="150" y="356" fill="#9aa1ad" font-size="11" text-anchor="middle">90회/시간 · 자기 열쇠</text>

<rect x="270" y="312" width="220" height="58" rx="8" fill="#3a1f1c" stroke="#a05548" stroke-width="2"/>
<text x="380" y="336" fill="#e8eaed" font-size="13" font-weight="600" text-anchor="middle">문② 블로그 창구</text>
<text x="380" y="356" fill="#9aa1ad" font-size="11" text-anchor="middle">90회/시간 · 자기 열쇠</text>

<line x1="150" y1="370" x2="150" y2="426" stroke="#9aa1ad" marker-end="url(#ar)"/>
<line x1="380" y1="370" x2="380" y2="426" stroke="#9aa1ad" marker-end="url(#ar)"/>

<rect x="40" y="430" width="680" height="86" rx="12" fill="#33270f" stroke="#a5842a" stroke-width="2"/>
<text x="380" y="458" fill="#e8eaed" font-size="14" font-weight="600" text-anchor="middle">공동 명부 · hotel_master (읽기만)</text>
<text x="380" y="480" fill="#9aa1ad" font-size="12" text-anchor="middle">호텔 3,015,718곳 · 221개국 · 73,791개 도시</text>
<text x="380" y="500" fill="#9aa1ad" font-size="12" text-anchor="middle">우리 번호 H-##### 부여 · 아무도 안 고침 · 분기 갱신</text>

<rect x="40" y="536" width="680" height="94" rx="10" fill="#171a21" stroke="#252a33"/>
<text x="60" y="562" fill="#e8eaed" font-size="13" font-weight="600">오늘 확정 수치 (2026-08-11)</text>
<text x="60" y="584" fill="#9aa1ad" font-size="12">아고다 번호 연결 2,955 / 3,253</text>
<text x="60" y="604" fill="#9aa1ad" font-size="12">블로그↔스튜디오 대조 가능 192곳</text>
<text x="400" y="584" fill="#9aa1ad" font-size="12">표 잠금 77 / 77</text>
<text x="400" y="604" fill="#9aa1ad" font-size="12">창고 2.6GB / 8GB · 월 $45</text>
</svg>
